<?xml version="1.0" standalone="no"?>
<!DOCTYPE svg PUBLIC "-//W3C//DTD SVG 20010904//EN"
 "http://www.w3.org/TR/2001/REC-SVG-20010904/DTD/svg10.dtd">
<svg version="1.0" xmlns="http://www.w3.org/2000/svg"
 width="512.000000pt" height="512.000000pt" viewBox="0 0 512.000000 512.000000"
 preserveAspectRatio="xMidYMid meet">
<metadata>
Created by potrace 1.11, written by Peter Selinger 2001-2013
</metadata>
<g transform="translate(0.000000,512.000000) scale(0.100000,-0.100000)"
fill="#000000" stroke="none">
<path d="M2378 5115 c-2 -1 -39 -5 -82 -9 -44 -4 -82 -9 -85 -11 -4 -2 -34 -7
-66 -10 -117 -14 -472 -111 -499 -136 -6 -5 -16 -9 -23 -9 -15 0 -131 -52
-228 -101 -178 -91 -401 -243 -530 -363 l-60 -55 -151 -1 c-247 0 -244 3 -244
-283 0 -174 -2 -197 -19 -218 -54 -70 -191 -351 -244 -504 -29 -80 -74 -237
-81 -278 -3 -15 -7 -35 -10 -45 -3 -9 -7 -34 -11 -56 -3 -21 -7 -41 -9 -45 -4
-6 -12 -72 -26 -201 -8 -85 -5 -454 4 -515 4 -22 13 -80 21 -130 53 -322 184
-675 345 -925 16 -25 37 -58 46 -74 9 -16 41 -63 72 -105 209 -282 490 -532
797 -708 76 -44 259 -133 272 -133 4 0 19 -6 33 -13 14 -7 66 -27 115 -44 289
-100 527 -140 845 -140 408 0 751 77 1110 250 701 337 1213 979 1384 1733 49
216 60 325 61 569 0 324 -38 563 -137 845 -57 163 -184 427 -249 522 -17 23
-19 48 -19 223 0 281 5 274 -230 275 -145 0 -167 2 -181 18 -59 66 -282 233
-434 324 -66 39 -298 158 -310 158 -4 0 -21 6 -38 14 -137 62 -421 138 -607
162 -25 3 -56 8 -70 10 -27 6 -456 14 -462 9z"/>
</g>
</svg>
